<svg xmlns="http://www.w3.org/2000/svg" viewBox="0 0 396.06 68.75"><defs><style>.cls-1{fill:#fff;}</style></defs><title>Asset 1</title><g id="Layer_2" data-name="Layer 2"><g id="Layer_1-2" data-name="Layer 1"><path class="cls-1" d="M49.77,10.4C49.06,5,52.31,4.05,56.61,4.24c4.91-.17,9.88-1.2,14.54,1.4,1.68.93,2.66,1.94,1.2,3.79-1.88,1.62-4,.91-6.18.81-3.65-.17-8.13-.68-9.89,2.95-2.18,4.49-1.73,9.7.19,14.48.6,1.49,2.16,2,3.72,2.12a26.86,26.86,0,0,0,17-4.51c2.6-1.76,2.41-5,4.32-7.08,4.07-1.61,4.67-1,4.34,4.28C85.22,29.53,80,32.07,74.31,33.8c-3.29,1-6.87,1-10.32,1.54-1.43.21-3.44-.43-4.09,1.06-.76,1.73,1.4,2.32,2.38,3.29C68.61,46,75,52.3,81.34,58.65c1.39,1.39,2.52,3,3.85,4.63-6.87,2.26-9.28-3.45-12.49-6.81-5.85-6.12-11.7-12.21-18-17.89-1.69-.42-1.41.88-1.44,1.75-.07,2.48.12,5-.08,7.45-.1,1.22,1,3.51-1.28,3.44-1.52,0-1.35-2-1.46-3.5-.79-10.65.12-21.31-.22-32C50.17,14,50.69,12.12,49.77,10.4Z"/><path class="cls-1" d="M49.77,10.4c2,7,.63,14.17,1.31,21.25.55,5.75.62,11.55,1.71,17.35,0-2.47-.13-5,.06-7.42.09-1.16-.88-3.34,1.86-3-2,6.17-.49,12.5-.87,18.74-.15,2.33,0,4.7-1.46,6.69-.46.61-1.24,1.39-1.87,1.39-1.48,0-1.08-1.41-1.13-2.3-.51-9.44-1.25-18.93-.33-28.33C49.85,26.63,49.63,18.52,49.77,10.4Z"/><path class="cls-1" d="M85.83,22.48c-.72-4-.76-4.05-3.11-3.07a1.76,1.76,0,0,1-2.25-.13,88.59,88.59,0,0,0-8.41-8,2.14,2.14,0,0,1-.45-2.68c-1.46-2.69-3.46-3.81-6.74-3.48-2.69.28-5.5-.52-8.26-.85,9-1.95,17.45-.79,25,4.71C86.36,12.45,87.49,16.64,85.83,22.48Z"/><path class="cls-1" d="M228.09,10.4c-.71-5.37,2.54-6.35,6.84-6.16,4.91-.17,9.88-1.2,14.54,1.4,1.68.93,2.66,1.94,1.2,3.79-1.88,1.62-4,.91-6.18.81-3.65-.17-8.13-.68-9.89,2.95-2.18,4.49-1.73,9.7.19,14.48.6,1.49,2.16,2,3.72,2.12a26.86,26.86,0,0,0,17-4.51c2.6-1.76,2.41-5,4.32-7.08,4.07-1.61,4.67-1,4.34,4.28-.61,7.05-5.87,9.59-11.52,11.32-3.29,1-6.87,1-10.32,1.54-1.43.21-3.44-.43-4.09,1.06-.76,1.73,1.4,2.32,2.38,3.29,6.33,6.35,12.74,12.61,19.06,19,1.39,1.39,2.52,3,3.85,4.63-6.87,2.26-9.28-3.45-12.49-6.81-5.85-6.12-11.7-12.21-18-17.89-1.69-.42-1.41.88-1.44,1.75-.07,2.48.12,5-.08,7.45-.1,1.22,1,3.51-1.28,3.44-1.52,0-1.35-2-1.46-3.5-.79-10.65.12-21.31-.22-32C228.49,14,229,12.12,228.09,10.4Z"/><path class="cls-1" d="M228.09,10.4c2,7,.63,14.17,1.31,21.25C230,37.4,230,43.2,231.11,49c0-2.47-.13-5,.06-7.42.09-1.16-.88-3.34,1.86-3-2,6.17-.49,12.5-.87,18.74-.15,2.33,0,4.7-1.46,6.69-.46.61-1.24,1.39-1.87,1.39-1.48,0-1.08-1.41-1.13-2.3-.51-9.44-1.25-18.93-.33-28.33C228.17,26.63,228,18.52,228.09,10.4Z"/><path class="cls-1" d="M264.15,22.48c-.72-4-.76-4.05-3.11-3.07a1.76,1.76,0,0,1-2.25-.13,88.59,88.59,0,0,0-8.41-8,2.14,2.14,0,0,1-.45-2.68c-1.46-2.69-3.46-3.81-6.74-3.48-2.69.28-5.5-.52-8.26-.85,9-1.95,17.45-.79,25,4.71C264.68,12.45,265.81,16.64,264.15,22.48Z"/><path class="cls-1" d="M97,13.7c3.5-7.2,10.75-7.41,17.15-9.21,1.56-.24,2.25.48,2.18,2-1.54,2.24-5.54,1.3-6.14,4.76-6,3.27-8.92,8.51-10.38,15.06a56.2,56.2,0,0,0-.92,17.85c.92,9.54,9.75,16.1,18.11,13.92a9.53,9.53,0,0,0,5-3c7.4-8.56,8.48-27.91,2.11-37.28a25.11,25.11,0,0,0-7.2-6.77c-.65-1.39-1.66-2.73-.72-4.37,3.83-1.22,9,1.16,11.38,5.44a30.62,30.62,0,0,0,2.68,4.51c4,7.24,4.32,15.35,4.59,23.22.56,16.3-12.86,27.39-28.28,24.12a16.51,16.51,0,0,1-13-12.44c-2.51-9.5-2.25-19.39-.84-29.15.31-2.12.8-4.27,2.55-5.81,1.29,4.23-1.79,7.76-1.68,11-.36,1.4-.86.56-.28.88C94.54,23.5,96.08,18.67,97,13.7Z"/><path class="cls-1" d="M130.28,16.58c-3-.91-3.6-4.2-5.84-5.83-2.52-1.84-4.9-4-8.27-4.12l.06,0L114.16,4.5C121.94,3.11,128.5,8,130.28,16.58Z"/><path class="cls-1" d="M97,13.7c.65,5.39-2,10-3.25,15-1-4.28,1-8.12,1.58-12.16C95.71,15.47,95.86,14.29,97,13.7Z"/><path class="cls-1" d="M117.89,11.25h-9.17c.94-4.55,4.94-4.06,7.49-4.58C116.89,7.63,117.21,10.29,117.89,11.25Z"/><path class="cls-1" d="M182.25,8.85c-2.29,1.07-4-.28-5.75-1-11.69-5.15-30,8.6-30.94,21.56-.4,5.29-.1,10.64,0,16,.13,6.42,5.46,10.25,8.19,15.36,1.57,2.93,6,3.6,9.55,2.12,3.93-1.66,8.06-3.1,11.37-5.94,2-1.69,3.87-1.32,6-.57-6.55,11.33-28.23,12.68-33.59,1.56-2.93-6.07-7.9-11.87-6.86-19.59a61.45,61.45,0,0,1,6.33-20.87C152.33,6.44,165.26.78,177,4.25,179.47,5,181.69,5.9,182.25,8.85Z"/><path class="cls-1" d="M219.08,30c-.91,1.88-2.47,1-3.58,2.11l3.53.85c-.1,1.48-1,1.47-1.79,1.4-6.83-.56-13.62.14-20.43.52-3.52.2-4.91,1.72-4.76,5.36.24,6,.08,12,0,18-.06,3.86,1.4,5.35,5.46,4.75a105.2,105.2,0,0,1,24.25-1.23c-.78,1.92-2.59,1.29-3.8,2,.43,1.61,2.58.21,3.13,2.26-4.93.36-9.77.63-14.59,1.08-4.63.43-9.27.89-13.86,1.61-3.72.59-4.6-1.12-4.68-4.41-.45-17.62-.66-35.24.06-52.86.07-1.65.57-3.58-.08-4.93-2-4.19,2.53-3.8,3.78-5.57,1.81-2.57,1,1.39,2.29,1.35,1.47-.06,3,.44,4.43.38a130.08,130.08,0,0,1,20.41.9c1.09.13,3.15-.6,2.81,1.51-.25,1.57-1.9,2.16-3.58,2-5.83-.73-11.63.13-17.44.34-7.9.28-7.95.26-8.35,8.12-.19,3.65,0,7.33-.22,11-.28,4.38,1.83,5.45,5.79,5,6.27-.73,12.57-1.19,18.86-1.73A13.34,13.34,0,0,1,219.08,30Z"/><path class="cls-1" d="M349.68,30c-.91,1.88-2.48,1-3.58,2.11l3.52.85c-.09,1.48-1,1.47-1.79,1.4-6.83-.56-13.62.14-20.42.52-3.53.2-4.91,1.72-4.76,5.36.24,6,.08,12,0,18-.07,3.86,1.39,5.35,5.46,4.75a105.2,105.2,0,0,1,24.25-1.23c-.78,1.92-2.6,1.29-3.8,2,.43,1.61,2.58.21,3.13,2.26-4.93.36-9.77.63-14.59,1.08-4.63.43-9.27.89-13.86,1.61-3.73.59-4.6-1.12-4.68-4.41-.46-17.62-.66-35.24.06-52.86.07-1.65.57-3.58-.08-4.93-2-4.19,2.53-3.8,3.78-5.57,1.81-2.57,1,1.39,2.29,1.35,1.47-.06,3,.44,4.43.38a129.9,129.9,0,0,1,20.4.9c1.1.13,3.16-.6,2.82,1.51-.25,1.57-1.9,2.16-3.59,2-5.82-.73-11.62.13-17.43.34-7.9.28-8,.26-8.36,8.12-.18,3.65,0,7.33-.22,11-.27,4.38,1.84,5.45,5.8,5,6.27-.73,12.57-1.19,18.86-1.73A13.45,13.45,0,0,1,349.68,30Z"/><path class="cls-1" d="M288.39,62.24c.09-7.46,1-14.87.18-22.37-1-9.48.73-18.89,2-28.26.46-3.51-.8-4.3-4-4.26-4.87.07-9.8.34-15.75-.85A27.27,27.27,0,0,1,284,3.34c7.45-.09,15,.76,22.37-.84,1.26-.27,2.95-.47,3.4,1.17s-1.21,2.27-2.31,2.8c-3.29,1.58-6.87.67-10.32.89-2.41.16-4.09,1-3.42,3.59,1.83,7.17,0,14.27-.58,21.3-.84,10-.45,19.92-.53,29.87C291.24,63.57,289.83,63.54,288.39,62.24Z"/><path class="cls-1" d="M288.39,62.24l4.22-.11,20.23,1C298.57,65,284.32,68.37,270.07,65l0-1.68Z"/><path class="cls-1" d="M372,5.39a14.65,14.65,0,0,1-2.42.57c-5.26.38-6.56,2.18-4.81,7.16,2.18,6.17,6.61,10.67,11.46,14.78,2.79,2.36,5.67,4.62,8.49,7,4.29,3.53,6.81,8.25,9.76,12.87,3.1,4.84,1,7.91-.43,11.72-2.17,5.87-7,8.88-13.32,7.41a67.81,67.81,0,0,1-19.66-8.34c-2.29-1.4-4.68-3.61.17-5.24,1.51-.51,1.45-.65,3.43,1.34,5.14,5.16,11.1,8.39,18.65,7.74,8.31-.72,11.57-7.36,7.53-14.67-3.73-6.77-10.95-9.52-16.12-14.63-4-4-8.46-7.51-12-12-2.9-3.65-6.39-7.6-4.79-12.44,1.91-5.76,8-6.39,12.91-6.92,7.5-.83,14.84,1.17,21.94,3.72,1.35.48,2.59,1.32,2,2.9-.77,2-1.84-.06-2.78,0-4.9.24-9.23-2.65-14.17-2.54C375.93,5.82,374,5.28,372,5.39Z"/><path class="cls-1" d="M372,5.39c7.13-2.15,13.84-1.5,20,2.93-.12,1.31-.14,3.13-2.11,2.24C384.15,8,377.59,8.34,372,5.39Z"/><path class="cls-1" d="M22.06,37.91c4.1-6.72,6.75-8.14,11.29-6.51,7.56,2.7,11.33,8.07,9.7,15.15-2.3,10-12,21.82-26.81,16.82C5.24,59.65-3,42.67,1.08,31.9c2.31-6,3.65-12.49,8.28-17.39,7.77-8.21,17.38-11.3,28.47-10,1.35.15,3.6-.18,3.6,1.75S39.31,7.76,37.88,8c-9.13,1.28-18,3.12-25.4,9.29a25.23,25.23,0,0,0-1.31,37.87,19.64,19.64,0,0,0,14.66,5.23c8.41-.3,16-15.65,11.59-22.82-1.28-2.1-3.07-1.7-4.82-1.45C29.24,36.56,25.91,37.23,22.06,37.91Z"/></g></g></svg>